# xmcd
#
# Track frame offsets: 
#        150
#        32139
#        74010
#        133610
#        148220
#        207978
#
# Disc length: 3009 seconds
#
# Revision: 3
# Processed by: cddbd v1.5.1PL0 Copyright (c) Steve Scherf et al.
# Submitted via: ExactAudioCopy v0.95a4
#
DISCID=620bbf06
DTITLE=Eric Dolphy - Wherever I Go
DYEAR=1900
DGENRE=Jazz
TTITLE0=Jitterbug Waltz
TTITLE1=Music Matador
TTITLE2=Alone Together
TTITLE3=Love Me
TTITLE4=Stormy Weather
TTITLE5=Wherever I Go
EXTD=
EXTT0=
EXTT1=
EXTT2=
EXTT3=
EXTT4=
EXTT5=
PLAYORDER=
